<svg width="48" height="48" viewBox="0 0 48 48" fill="none" xmlns="http://www.w3.org/2000/svg">
<rect x="0.808594" y="0.875" width="46.4106" height="46.4106" fill="#CC5520"/>
<path d="M32.0614 20.4093H26.2204V26.1843H22.6894V20.4093H16.8484V17.1093H22.6894V11.3343H26.2204V17.1093H32.0614V20.4093Z" fill="white"/>
<path d="M18.472 36.1281H14.182L13.258 38.1851H12.411L15.931 30.4851H16.734L20.254 38.1851H19.396L18.472 36.1281ZM18.175 35.4681L16.327 31.3321L14.479 35.4681H18.175ZM27.139 30.0231V38.1851H26.391V37.0411C26.1564 37.4297 25.8447 37.7267 25.456 37.9321C25.0747 38.1374 24.642 38.2401 24.158 38.2401C23.6154 38.2401 23.124 38.1154 22.684 37.8661C22.244 37.6167 21.8994 37.2684 21.65 36.8211C21.4007 36.3737 21.276 35.8641 21.276 35.2921C21.276 34.7201 21.4007 34.2104 21.65 33.7631C21.8994 33.3157 22.244 32.9711 22.684 32.7291C23.124 32.4797 23.6154 32.3551 24.158 32.3551C24.6274 32.3551 25.049 32.4541 25.423 32.6521C25.8044 32.8427 26.116 33.1251 26.358 33.4991V30.0231H27.139ZM24.224 37.5471C24.6274 37.5471 24.9904 37.4554 25.313 37.2721C25.643 37.0814 25.8997 36.8137 26.083 36.4691C26.2737 36.1244 26.369 35.7321 26.369 35.2921C26.369 34.8521 26.2737 34.4597 26.083 34.1151C25.8997 33.7704 25.643 33.5064 25.313 33.3231C24.9904 33.1324 24.6274 33.0371 24.224 33.0371C23.8134 33.0371 23.443 33.1324 23.113 33.3231C22.7904 33.5064 22.5337 33.7704 22.343 34.1151C22.1597 34.4597 22.068 34.8521 22.068 35.2921C22.068 35.7321 22.1597 36.1244 22.343 36.4691C22.5337 36.8137 22.7904 37.0814 23.113 37.2721C23.443 37.4554 23.8134 37.5471 24.224 37.5471ZM35.1441 30.0231V38.1851H34.3961V37.0411C34.1614 37.4297 33.8498 37.7267 33.4611 37.9321C33.0798 38.1374 32.6471 38.2401 32.1631 38.2401C31.6204 38.2401 31.1291 38.1154 30.6891 37.8661C30.2491 37.6167 29.9044 37.2684 29.6551 36.8211C29.4058 36.3737 29.2811 35.8641 29.2811 35.2921C29.2811 34.7201 29.4058 34.2104 29.6551 33.7631C29.9044 33.3157 30.2491 32.9711 30.6891 32.7291C31.1291 32.4797 31.6204 32.3551 32.1631 32.3551C32.6324 32.3551 33.0541 32.4541 33.4281 32.6521C33.8094 32.8427 34.1211 33.1251 34.3631 33.4991V30.0231H35.1441ZM32.2291 37.5471C32.6324 37.5471 32.9954 37.4554 33.3181 37.2721C33.6481 37.0814 33.9048 36.8137 34.0881 36.4691C34.2788 36.1244 34.3741 35.7321 34.3741 35.2921C34.3741 34.8521 34.2788 34.4597 34.0881 34.1151C33.9048 33.7704 33.6481 33.5064 33.3181 33.3231C32.9954 33.1324 32.6324 33.0371 32.2291 33.0371C31.8184 33.0371 31.4481 33.1324 31.1181 33.3231C30.7954 33.5064 30.5388 33.7704 30.3481 34.1151C30.1648 34.4597 30.0731 34.8521 30.0731 35.2921C30.0731 35.7321 30.1648 36.1244 30.3481 36.4691C30.5388 36.8137 30.7954 37.0814 31.1181 37.2721C31.4481 37.4554 31.8184 37.5471 32.2291 37.5471Z" fill="white"/>
</svg>
