<svg width="99" height="23" viewBox="0 0 99 23" fill="none" xmlns="http://www.w3.org/2000/svg">
<g clip-path="url(#clip0_4_65)">
<path d="M16.6949 0H6.3051C2.82846 0 0 2.82846 0 6.30514V16.6949C0 20.1716 2.82846 23 6.3051 23H16.6949C20.1716 23 23 20.1716 23 16.6949V6.30514C23 2.82846 20.1716 0 16.6949 0ZM21.6417 16.6949C21.6417 19.4226 19.4226 21.6417 16.6949 21.6417H6.3051C3.5774 21.6417 1.35826 19.4226 1.35826 16.6949V6.30514C1.35826 3.5774 3.5774 1.35826 6.3051 1.35826H16.6949C19.4226 1.35826 21.6417 3.5774 21.6417 6.30514V16.6949Z" fill="white"/>
<path d="M11.4998 5.19162C8.02135 5.19162 5.19141 8.02156 5.19141 11.5C5.19141 14.9785 8.02131 17.8085 11.4998 17.8085C14.9783 17.8085 17.8083 14.9785 17.8083 11.5C17.8083 8.02152 14.9783 5.19162 11.4998 5.19162ZM11.4998 16.4503C8.77029 16.4503 6.54962 14.2295 6.54962 11.5C6.54962 8.77046 8.77029 6.54979 11.4998 6.54979C14.2294 6.54979 16.4501 8.7705 16.4501 11.5C16.4501 14.2296 14.2294 16.4503 11.4998 16.4503Z" fill="white"/>
<path d="M18.1857 2.89758C17.1288 2.89758 16.269 3.75743 16.269 4.81426C16.269 5.8711 17.1288 6.7309 18.1857 6.7309C19.2425 6.7309 20.1023 5.87105 20.1023 4.81422C20.1023 3.75739 19.2425 2.89758 18.1857 2.89758ZM18.1857 5.3726C17.8778 5.3726 17.6273 5.12211 17.6273 4.81422C17.6273 4.50633 17.8778 4.25584 18.1857 4.25584C18.4936 4.25584 18.7441 4.50637 18.7441 4.81422C18.7441 5.12207 18.4936 5.3726 18.1857 5.3726Z" fill="white"/>
</g>
<g clip-path="url(#clip1_4_65)">
<path d="M60.5496 1.88443C60.1796 1.54541 59.6537 1.43243 59.177 1.58952L38.9537 8.25597C38.4026 8.43764 38.0289 8.92962 38.0016 9.50925C37.9744 10.0889 38.3003 10.6138 38.8319 10.8465L43.8333 13.0347C43.8576 13.1479 45.2934 19.807 45.3422 20.0333C45.4049 20.3241 45.5525 20.583 45.8651 20.6627C46.1813 20.7432 46.4047 20.5704 46.6406 20.3938C46.7719 20.2955 50.352 17.6147 50.352 17.6147L54.691 21.1653C54.9437 21.3722 55.2526 21.4801 55.5676 21.4801C55.7175 21.48 55.8689 21.4556 56.0162 21.4056C56.4728 21.2508 56.8114 20.8781 56.9217 20.4087L60.9632 3.22598C61.078 2.73746 60.9196 2.22346 60.5496 1.88443ZM46.9639 14.2886C46.9614 14.2945 46.959 14.3011 46.9567 14.309L46.1201 17.2319L45.1864 12.9017L51.6065 9.33468L47.1179 14.028C47.0472 14.102 46.9952 14.1914 46.9639 14.2886ZM47.2294 18.2653L47.6094 16.9377L47.9729 15.6678L49.2752 16.7335L47.2294 18.2653ZM59.6482 2.91665L55.6068 20.0994C55.6048 20.1079 55.6021 20.1197 55.5823 20.1264C55.5628 20.133 55.5532 20.1254 55.5465 20.1198L50.7987 16.2346C50.7985 16.2345 50.7984 16.2344 50.7983 16.2343L48.5985 14.4342L55.6658 7.04466C55.8966 6.80329 55.9163 6.42949 55.7123 6.16513C55.5081 5.90072 55.1414 5.82521 54.8496 5.98746L44.385 11.8017L39.3734 9.60888C39.3581 9.60224 39.3497 9.59851 39.3509 9.57268C39.3521 9.54694 39.3608 9.54402 39.3766 9.53881L59.5999 2.8724C59.6097 2.86921 59.6208 2.86553 59.637 2.88035C59.6533 2.89527 59.6506 2.90659 59.6482 2.91665Z" fill="white"/>
</g>
<g clip-path="url(#clip2_4_65)">
<path d="M98.8984 4.92067C98.7624 4.69948 98.5136 4.5741 98.2546 4.59656L97.1077 4.69647L98.2039 2.48662C98.3345 2.22342 98.2829 1.90632 98.0757 1.69801C97.8685 1.48971 97.5517 1.43661 97.2878 1.56581L94.3865 2.98674C92.5939 2.04041 90.3544 2.32131 88.8134 3.72507C87.5273 4.89664 86.8513 6.69832 86.9773 8.49502C83.6159 8.15811 80.7705 6.23405 79.088 3.12518C78.9764 2.91895 78.7671 2.78405 78.5332 2.76747C78.2988 2.75116 78.0731 2.85502 77.9335 3.04356C76.89 4.4533 76.8168 6.3862 77.6348 7.9764C77.4093 7.91944 77.1694 7.84235 76.9032 7.75345C76.6753 7.67722 76.4239 7.72605 76.241 7.88202C76.058 8.03799 75.97 8.27836 76.0092 8.5156C76.3329 10.4781 77.4773 11.9864 79.2851 12.8792C79.0497 12.9612 78.8095 13.0278 78.5653 13.0787C78.3226 13.1293 78.1261 13.3068 78.0514 13.5431C77.9766 13.7794 78.035 14.0377 78.2044 14.2187C79.5063 15.6103 81.3869 16.2952 82.7227 16.6238C81.2039 17.8132 79.5644 18.0122 77.182 17.9304C76.9062 17.9221 76.6521 18.0774 76.5362 18.3274C76.4203 18.5774 76.4652 18.8726 76.6505 19.0767C77.6436 20.1715 81.2619 21.4058 85.0655 21.4984C85.216 21.502 85.3694 21.504 85.5261 21.504C88.1968 21.5039 91.7263 20.9314 94.2598 18.398C96.1774 16.4804 97.3768 14.2729 97.8246 11.837C98.1863 9.86954 97.9577 8.29404 97.8479 7.53684C97.8398 7.48118 97.8312 7.42211 97.8242 7.37045L98.8969 5.6414C99.0338 5.42083 99.0344 5.14187 98.8984 4.92067ZM96.4903 7.73377C96.6938 9.13642 97.3131 13.4047 93.2898 17.428C90.9512 19.7666 87.5448 20.1865 85.0988 20.1271C83.0117 20.0763 81.1449 19.6771 79.7918 19.2219C80.3412 19.1545 80.8307 19.0506 81.2928 18.9069C82.5668 18.511 83.643 17.7984 84.6797 16.6647C84.8525 16.4757 84.9056 16.2062 84.8175 15.9658C84.7295 15.7254 84.5147 15.5541 84.2607 15.5215C83.6067 15.4377 81.6416 15.1069 80.0941 14.0395C80.54 13.8571 80.9701 13.6288 81.3808 13.3564C81.6061 13.2069 81.7226 12.9391 81.6782 12.6724C81.6339 12.4057 81.4371 12.1899 81.1755 12.1213C79.909 11.7893 78.3804 11.0463 77.6755 9.38762C78.1256 9.4665 78.615 9.4856 79.137 9.36857C79.379 9.3144 79.5729 9.13381 79.644 8.89626C79.7152 8.65872 79.6527 8.40122 79.4805 8.22288C78.6034 7.31447 78.2754 6.00536 78.5568 4.88514C79.4783 6.23194 80.6458 7.36541 81.9834 8.20343C83.6945 9.2755 85.6917 9.86797 87.759 9.91662C87.9694 9.92107 88.1712 9.82925 88.3052 9.66627C88.439 9.50334 88.4905 9.28785 88.4447 9.08197C88.089 7.48297 88.5963 5.77837 89.7372 4.73919C90.9204 3.66128 92.6692 3.49777 93.9898 4.34181C94.1914 4.47069 94.4458 4.48511 94.6608 4.37981L96.0777 3.68586L95.3361 5.1809C95.2259 5.40304 95.2442 5.66736 95.3839 5.87216C95.5236 6.07696 95.7626 6.19066 96.01 6.16896L97.0092 6.08195L96.5489 6.82383C96.3944 7.07284 96.4265 7.29376 96.4903 7.73377Z" fill="white"/>
</g>
<defs>
<clipPath id="clip0_4_65">
<rect width="23" height="23" fill="white"/>
</clipPath>
<clipPath id="clip1_4_65">
<rect width="23" height="23" fill="white" transform="translate(38)"/>
</clipPath>
<clipPath id="clip2_4_65">
<rect width="23" height="23" fill="white" transform="translate(76)"/>
</clipPath>
</defs>
</svg>
